
<svg id="visual" viewBox="0 0 900 600" width="900" height="600" xmlns="http://www.w3.org/2000/svg" xmlns:xlink="http://www.w3.org/1999/xlink" version="1.1"><path d="M0 97L13.7 116C27.3 135 54.7 173 82 175C109.3 177 136.7 143 163.8 145C191 147 218 185 245.2 182C272.3 179 299.7 135 327 123C354.3 111 381.7 131 409 130C436.3 129 463.7 107 491 104C518.3 101 545.7 117 573 147C600.3 177 627.7 221 654.8 230C682 239 709 213 736.2 185C763.3 157 790.7 127 818 126C845.3 125 872.7 153 886.3 167L900 181L900 0L886.3 0C872.7 0 845.3 0 818 0C790.7 0 763.3 0 736.2 0C709 0 682 0 654.8 0C627.7 0 600.3 0 573 0C545.7 0 518.3 0 491 0C463.7 0 436.3 0 409 0C381.7 0 354.3 0 327 0C299.7 0 272.3 0 245.2 0C218 0 191 0 163.8 0C136.7 0 109.3 0 82 0C54.7 0 27.3 0 13.7 0L0 0Z" fill="#6198ff"></path><path d="M0 157L13.7 174C27.3 191 54.7 225 82 233C109.3 241 136.7 223 163.8 232C191 241 218 277 245.2 274C272.3 271 299.7 229 327 221C354.3 213 381.7 239 409 243C436.3 247 463.7 229 491 216C518.3 203 545.7 195 573 217C600.3 239 627.7 291 654.8 310C682 329 709 315 736.2 295C763.3 275 790.7 249 818 237C845.3 225 872.7 227 886.3 228L900 229L900 179L886.3 165C872.7 151 845.3 123 818 124C790.7 125 763.3 155 736.2 183C709 211 682 237 654.8 228C627.7 219 600.3 175 573 145C545.7 115 518.3 99 491 102C463.7 105 436.3 127 409 128C381.7 129 354.3 109 327 121C299.7 133 272.3 177 245.2 180C218 183 191 145 163.8 143C136.7 141 109.3 175 82 173C54.7 171 27.3 133 13.7 114L0 95Z" fill="#3c80ff"></path><path d="M0 445L13.7 437C27.3 429 54.7 413 82 406C109.3 399 136.7 401 163.8 417C191 433 218 463 245.2 466C272.3 469 299.7 445 327 437C354.3 429 381.7 437 409 437C436.3 437 463.7 429 491 421C518.3 413 545.7 405 573 410C600.3 415 627.7 433 654.8 435C682 437 709 423 736.2 431C763.3 439 790.7 469 818 460C845.3 451 872.7 403 886.3 379L900 355L900 227L886.3 226C872.7 225 845.3 223 818 235C790.7 247 763.3 273 736.2 293C709 313 682 327 654.8 308C627.7 289 600.3 237 573 215C545.7 193 518.3 201 491 214C463.7 227 436.3 245 409 241C381.7 237 354.3 211 327 219C299.7 227 272.3 269 245.2 272C218 275 191 239 163.8 230C136.7 221 109.3 239 82 231C54.7 223 27.3 189 13.7 172L0 155Z" fill="#0066ff"></path><path d="M0 499L13.7 488C27.3 477 54.7 455 82 446C109.3 437 136.7 441 163.8 460C191 479 218 513 245.2 519C272.3 525 299.7 503 327 501C354.3 499 381.7 517 409 519C436.3 521 463.7 507 491 497C518.3 487 545.7 481 573 491C600.3 501 627.7 527 654.8 524C682 521 709 489 736.2 487C763.3 485 790.7 513 818 510C845.3 507 872.7 473 886.3 456L900 439L900 353L886.3 377C872.7 401 845.3 449 818 458C790.7 467 763.3 437 736.2 429C709 421 682 435 654.8 433C627.7 431 600.3 413 573 408C545.7 403 518.3 411 491 419C463.7 427 436.3 435 409 435C381.7 435 354.3 427 327 435C299.7 443 272.3 467 245.2 464C218 461 191 431 163.8 415C136.7 399 109.3 397 82 404C54.7 411 27.3 427 13.7 435L0 443Z" fill="#0059dd"></path><path d="M0 601L13.7 601C27.3 601 54.7 601 82 601C109.3 601 136.7 601 163.8 601C191 601 218 601 245.2 601C272.3 601 299.7 601 327 601C354.3 601 381.7 601 409 601C436.3 601 463.7 601 491 601C518.3 601 545.7 601 573 601C600.3 601 627.7 601 654.8 601C682 601 709 601 736.2 601C763.3 601 790.7 601 818 601C845.3 601 872.7 601 886.3 601L900 601L900 437L886.3 454C872.7 471 845.3 505 818 508C790.7 511 763.3 483 736.2 485C709 487 682 519 654.8 522C627.7 525 600.3 499 573 489C545.7 479 518.3 485 491 495C463.7 505 436.3 519 409 517C381.7 515 354.3 497 327 499C299.7 501 272.3 523 245.2 517C218 511 191 477 163.8 458C136.7 439 109.3 435 82 444C54.7 453 27.3 475 13.7 486L0 497Z" fill="#004cbb"></path></svg>
